<?xml version="1.0" standalone="no"?>
<!DOCTYPE svg PUBLIC "-//W3C//DTD SVG 20010904//EN"
 "http://www.w3.org/TR/2001/REC-SVG-20010904/DTD/svg10.dtd">
<svg version="1.0" xmlns="http://www.w3.org/2000/svg"
 width="512.000000pt" height="512.000000pt" viewBox="0 0 512.000000 512.000000"
 preserveAspectRatio="xMidYMid meet">
<metadata>
Created by potrace 1.14, written by Peter Selinger 2001-2017
</metadata>
<g transform="translate(0.000000,512.000000) scale(0.100000,-0.100000)"
fill="#000000" stroke="none">
<path d="M520 4796 c0 -3 18 -86 41 -183 22 -98 49 -218 60 -268 11 -49 29
-126 39 -170 11 -44 28 -120 40 -170 48 -212 114 -505 195 -865 48 -212 91
-389 95 -393 7 -8 350 583 350 603 0 6 -66 129 -147 273 -296 530 -370 663
-395 707 -14 25 -40 72 -58 105 -18 33 -47 85 -65 115 -33 55 -86 153 -112
201 -13 26 -43 57 -43 45z"/>
<path d="M4577 4782 c-10 -10 -17 -22 -17 -25 0 -4 -18 -37 -40 -73 -22 -36
-40 -67 -40 -69 0 -2 -38 -72 -103 -187 -15 -27 -39 -69 -54 -95 -100 -181
-264 -474 -343 -613 -160 -284 -200 -358 -200 -368 0 -17 339 -612 348 -612 4
0 19 55 34 123 38 172 172 764 198 872 11 50 25 108 30 130 33 148 54 240 70
310 10 44 28 123 40 175 11 52 28 123 36 158 7 34 21 92 29 130 9 37 21 86 27
110 13 49 8 60 -15 34z"/>
<path d="M920 4593 c0 -9 20 -50 44 -92 45 -80 59 -104 170 -303 13 -24 37
-67 55 -96 17 -29 31 -55 31 -58 0 -2 10 -21 23 -42 13 -20 42 -71 64 -112 22
-41 67 -122 100 -180 33 -58 72 -127 88 -155 15 -27 102 -183 193 -345 90
-162 293 -524 449 -805 156 -280 288 -514 294 -519 5 -6 9 310 9 835 l0 844
-108 72 c-59 40 -168 114 -242 166 -74 51 -187 129 -250 173 -63 44 -176 122
-250 174 -249 174 -334 233 -480 333 -80 55 -152 106 -161 113 -21 18 -29 18
-29 -3z"/>
<path d="M4055 4515 c-77 -52 -147 -101 -156 -108 -8 -6 -23 -16 -31 -22 -9
-5 -70 -48 -137 -95 -166 -116 -328 -228 -436 -302 -49 -34 -94 -66 -100 -71
-5 -4 -23 -17 -40 -27 -16 -10 -129 -88 -250 -173 l-220 -154 -3 -843 c-1
-529 1 -841 7 -835 5 6 138 240 294 520 291 522 416 746 769 1375 14 25 38 68
53 95 15 28 35 64 45 80 10 17 30 53 45 80 15 28 55 100 90 160 34 61 77 137
95 170 18 33 53 95 77 137 69 121 58 123 -102 13z"/>
<path d="M1442 2993 c-138 -238 -425 -748 -429 -762 -2 -11 19 -29 74 -61 43
-24 219 -129 392 -232 173 -103 315 -188 317 -188 1 0 46 -27 99 -60 53 -33
98 -60 99 -60 2 0 86 -49 186 -110 101 -60 191 -112 201 -115 18 -6 18 -4 7
22 -6 15 -15 33 -19 38 -3 6 -23 42 -44 80 -21 39 -94 171 -163 295 -159 285
-143 258 -247 445 -48 88 -132 239 -185 335 -53 96 -129 235 -169 308 -40 72
-75 132 -77 132 -2 0 -21 -30 -42 -67z"/>
<path d="M3615 3029 c-19 -36 -289 -526 -535 -969 -81 -146 -164 -296 -185
-335 -21 -38 -51 -92 -67 -118 -15 -26 -28 -50 -28 -52 0 -2 -14 -28 -31 -57
-36 -62 -52 -98 -41 -98 4 0 66 34 137 76 72 42 144 85 160 94 17 10 61 36 99
60 38 23 83 50 100 60 17 9 62 36 100 60 38 23 83 50 100 59 17 10 168 100
336 201 168 100 315 187 328 193 12 6 22 15 22 20 0 6 -40 81 -89 166 -49 86
-152 269 -231 406 -78 138 -145 254 -150 259 -5 4 -16 -7 -25 -25z"/>
<path d="M1160 565 l0 -295 55 0 55 0 0 240 0 240 73 0 c108 0 108 -1 106
-189 -1 -187 -3 -189 -121 -181 -27 1 -28 0 -28 -54 l0 -56 60 0 c64 0 117 17
148 47 41 39 46 63 47 238 2 178 -4 209 -45 252 -41 44 -68 51 -212 52 l-138
2 0 -296z"/>
<path d="M1706 573 c-53 -159 -96 -291 -96 -295 0 -5 24 -8 54 -8 57 0 60 3
81 78 6 20 13 22 68 23 34 1 74 0 90 -1 21 -1 27 3 27 18 0 10 -3 22 -7 26 -5
4 -8 11 -8 14 -1 4 -4 17 -9 30 -6 19 -14 22 -56 22 -27 0 -51 3 -53 8 -5 11
60 196 66 186 3 -5 19 -52 36 -104 18 -52 36 -104 41 -115 5 -11 20 -57 35
-102 l27 -83 54 0 c30 0 54 3 54 8 0 4 -43 136 -96 295 l-96 287 -58 0 -57 0
-97 -287z"/>
<path d="M2175 565 l0 -295 51 0 c33 0 53 5 56 13 2 6 3 114 2 240 l-1 227 31
1 c17 0 82 0 144 0 l112 0 0 55 0 54 -197 0 -198 0 0 -295z"/>
<path d="M2630 565 l0 -295 54 0 54 0 1 236 c0 130 2 239 5 241 2 3 67 6 143
6 l138 2 0 50 0 50 -197 3 -198 2 0 -295z"/>
<path d="M2319 620 c-8 -93 -3 -99 86 -98 l75 2 0 53 0 53 -80 0 c-46 0 -80
-4 -81 -10z"/>
<path d="M2770 576 l0 -53 83 1 82 1 0 53 1 52 -83 0 -83 0 0 -54z"/>
<path d="M3052 538 l3 -33 90 0 c50 -1 96 1 103 3 6 2 12 17 12 33 l0 29 -106
0 -105 0 3 -32z"/>
<path d="M3305 428 c2 -168 2 -168 110 -168 80 0 105 15 105 63 0 24 -4 27
-35 27 -22 0 -34 -5 -32 -12 1 -7 -14 -13 -40 -14 l-43 -3 0 125 0 124 -33 0
-34 0 2 -142z"/>
<path d="M3459 568 c-1 -2 -2 -47 -3 -100 -2 -88 0 -98 16 -99 10 -1 25 -2 33
-3 8 0 15 2 15 7 0 4 0 50 0 102 l0 95 -30 0 c-16 0 -31 -1 -31 -2z"/>
<path d="M3569 558 c-1 -17 -1 -258 0 -280 1 -16 12 -18 84 -18 124 0 127 3
126 151 0 155 -3 159 -124 159 -61 0 -85 -4 -86 -12z m142 -57 c7 -34 4 -48
-10 -48 -46 0 -50 -3 -47 -30 3 -22 9 -29 33 -33 24 -4 29 -10 28 -34 0 -26
-4 -30 -30 -32 -53 -3 -56 2 -54 90 1 44 3 83 4 86 5 7 75 8 76 1z"/>
<path d="M3830 548 c-1 -37 -1 -220 -1 -255 l1 -33 105 0 105 0 -3 32 -2 32
-70 0 -70 1 -3 70 c-5 110 -3 113 68 111 70 -3 77 0 76 37 l0 27 -103 0 c-100
0 -103 -1 -103 -22z"/>
<path d="M3122 374 l1 -114 32 0 33 0 -1 113 -2 112 -31 2 -32 1 0 -114z"/>
<path d="M3914 451 c-2 -2 -4 -17 -4 -33 0 -26 2 -28 43 -28 52 0 57 4 48 38
-6 22 -13 26 -45 27 -21 0 -40 -2 -42 -4z"/>
</g>
</svg>
