<?xml version="1.0" standalone="no"?>
<!DOCTYPE svg PUBLIC "-//W3C//DTD SVG 20010904//EN"
 "http://www.w3.org/TR/2001/REC-SVG-20010904/DTD/svg10.dtd">
<svg version="1.0" xmlns="http://www.w3.org/2000/svg"
 width="512.000000pt" height="512.000000pt" viewBox="0 0 512.000000 512.000000"
 preserveAspectRatio="xMidYMid meet">
<metadata>
Created by potrace 1.14, written by Peter Selinger 2001-2017
</metadata>
<g transform="translate(0.000000,512.000000) scale(0.100000,-0.100000)"
fill="#000000" stroke="none">
<path d="M197 4507 c3 -18 9 -34 12 -37 3 -3 7 -21 8 -40 3 -51 5 -60 14 -60
4 0 6 -12 4 -27 -2 -16 1 -32 5 -38 6 -8 31 -115 44 -190 1 -5 5 -15 9 -22 4
-6 4 -18 1 -27 -3 -9 -1 -16 6 -16 6 0 10 -8 9 -17 -1 -10 2 -36 9 -58 6 -22
16 -67 22 -100 7 -33 15 -67 19 -75 5 -8 7 -23 5 -32 -1 -10 1 -18 5 -18 5 0
7 -12 6 -27 -1 -16 1 -30 5 -33 4 -3 17 -54 29 -115 28 -134 29 -140 31 -140
1 0 3 -12 4 -26 2 -14 6 -30 9 -36 6 -10 48 -203 49 -230 1 -7 5 -13 9 -13 4
0 6 -11 4 -25 -1 -14 1 -28 6 -30 4 -3 8 -13 8 -23 0 -20 29 -160 38 -182 3
-8 5 -21 4 -28 -1 -8 3 -19 9 -26 5 -8 8 -21 4 -30 -3 -9 -1 -16 5 -16 6 0 11
-10 10 -22 0 -13 9 -63 21 -113 11 -49 23 -99 25 -110 3 -11 8 -31 11 -45 4
-14 7 -35 8 -47 0 -13 4 -23 8 -23 4 0 7 -8 6 -17 0 -24 35 -187 42 -193 3 -3
6 -13 7 -22 1 -33 3 -38 13 -38 6 0 17 18 26 40 9 22 20 40 26 40 5 0 7 4 3 9
-3 5 -1 12 5 16 6 3 18 23 29 43 10 20 38 71 61 112 96 166 118 205 118 214 0
5 4 12 9 15 7 5 16 19 57 96 6 10 17 25 23 33 7 7 16 24 19 38 3 13 10 24 15
24 19 0 8 55 -20 100 -16 27 -27 51 -24 54 4 3 2 6 -4 6 -5 0 -18 18 -28 40
-10 22 -22 40 -27 40 -5 0 -7 4 -3 9 3 5 0 13 -6 16 -6 4 -24 35 -40 69 -16
33 -42 81 -58 106 -16 25 -30 51 -30 58 -1 6 -6 12 -12 12 -5 0 -7 5 -4 10 3
6 3 10 -2 10 -4 0 -19 25 -33 55 -14 30 -29 55 -33 55 -5 0 -5 5 -2 10 3 6 2
10 -3 10 -6 0 -20 21 -32 48 -12 26 -29 55 -38 65 -8 9 -12 17 -8 17 4 0 0 7
-8 16 -9 8 -16 21 -16 28 0 7 -11 27 -25 46 -13 18 -22 37 -19 41 3 5 1 9 -4
9 -5 0 -21 24 -36 53 -44 89 -86 161 -99 169 -7 4 -7 8 -2 8 7 0 7 3 0 8 -6 4
-21 31 -34 60 -14 28 -28 52 -33 52 -5 0 -7 4 -4 9 4 5 3 11 -1 13 -5 1 -23
32 -42 68 -19 36 -37 67 -40 70 -3 3 -14 21 -24 40 -39 78 -83 157 -104 186
-12 17 -20 34 -17 36 3 3 -2 8 -10 11 -12 5 -14 0 -9 -26z"/>
<path d="M4904 4513 c-10 -15 -17 -31 -16 -35 1 -5 -3 -8 -8 -8 -6 0 -20 -19
-31 -42 -25 -55 -84 -159 -98 -175 -6 -7 -11 -16 -11 -20 0 -4 -15 -33 -34
-65 -19 -31 -32 -59 -29 -62 4 -3 2 -6 -4 -6 -5 0 -20 -24 -34 -52 -13 -29
-26 -55 -29 -58 -6 -5 -56 -92 -103 -180 -16 -30 -35 -58 -41 -62 -6 -4 -7 -8
-3 -8 4 0 -4 -17 -18 -37 -14 -21 -25 -43 -25 -50 0 -7 -5 -13 -11 -13 -5 0
-7 -4 -4 -10 3 -5 1 -10 -5 -10 -6 0 -8 -4 -5 -10 3 -5 2 -10 -3 -10 -5 0 -12
-8 -15 -17 -8 -25 -50 -97 -62 -105 -7 -5 -7 -8 0 -8 7 0 7 -3 0 -8 -10 -7
-26 -35 -91 -162 -22 -41 -43 -77 -47 -79 -5 -2 -22 -31 -38 -65 -34 -71 -82
-155 -99 -173 -6 -7 -8 -13 -5 -13 3 0 -10 -24 -29 -54 l-34 -53 33 -64 c67
-129 79 -149 88 -149 4 0 6 -4 2 -9 -3 -5 1 -15 8 -23 7 -7 23 -35 37 -63 14
-27 28 -51 33 -53 4 -2 7 -10 7 -18 0 -8 5 -14 10 -14 6 0 10 -6 10 -14 0 -7
11 -29 24 -49 13 -19 22 -38 18 -41 -3 -3 0 -6 7 -6 7 0 10 -4 7 -9 -4 -5 -2
-11 3 -13 10 -3 59 -87 91 -155 13 -27 25 -40 34 -37 8 3 13 13 12 22 -2 9 1
24 5 32 7 13 35 137 43 195 2 11 4 20 5 20 3 0 11 32 17 70 7 43 10 58 17 75
6 14 34 142 41 185 2 11 4 20 5 20 3 0 13 46 14 70 1 11 4 22 7 25 4 3 14 50
24 105 10 55 22 105 26 110 4 6 6 20 4 33 -2 12 0 22 4 22 5 0 9 6 9 13 1 20
43 211 50 227 3 8 7 26 8 40 1 14 3 25 4 25 3 0 4 3 30 135 12 58 25 112 30
120 4 8 6 25 5 38 -2 12 0 22 5 22 6 0 10 8 10 18 0 9 11 67 25 127 30 128 38
164 39 188 1 9 5 17 10 17 5 0 7 10 6 23 -1 12 1 29 4 37 10 23 38 153 38 175
0 10 4 24 10 31 5 7 9 16 8 20 -1 5 0 16 3 24 10 27 28 123 25 127 -3 2 -13
-9 -23 -24z"/>
<path d="M654 4297 c1 -6 9 -23 19 -37 9 -13 17 -30 17 -36 0 -6 11 -28 25
-48 13 -20 22 -36 19 -36 -2 0 0 -6 6 -12 18 -21 120 -205 120 -217 0 -6 5
-11 11 -11 5 0 8 -4 5 -9 -4 -5 -3 -11 2 -13 9 -3 92 -145 92 -157 0 -3 11
-23 25 -44 14 -20 22 -37 18 -37 -4 0 -3 -4 3 -8 6 -4 26 -36 45 -72 18 -36
36 -67 40 -70 3 -3 15 -23 26 -45 10 -22 27 -52 37 -67 10 -16 14 -28 10 -28
-5 0 -4 -4 3 -8 11 -7 66 -101 101 -172 9 -19 20 -36 25 -38 4 -2 7 -8 7 -12
0 -5 17 -37 37 -72 20 -35 36 -65 34 -67 -1 -2 1 -7 6 -10 5 -3 14 -17 21 -31
6 -14 25 -47 41 -75 28 -48 70 -130 71 -140 0 -3 9 -14 20 -25 11 -11 20 -27
20 -35 0 -8 5 -15 11 -15 5 0 7 -4 4 -10 -3 -5 -1 -10 5 -10 6 0 9 -4 5 -9 -3
-5 -1 -12 5 -16 6 -4 22 -30 37 -58 14 -29 31 -55 37 -59 6 -5 7 -8 1 -8 -7 0
-7 -3 0 -8 6 -4 20 -27 32 -52 13 -25 31 -58 40 -75 56 -96 91 -158 154 -275
13 -25 27 -46 32 -48 4 -2 7 -10 7 -18 0 -8 5 -14 11 -14 5 0 8 -4 5 -8 -3 -5
5 -24 18 -43 13 -19 26 -44 30 -56 4 -13 12 -23 17 -23 6 0 7 -4 4 -10 -3 -5
-3 -10 2 -10 4 0 19 -24 33 -53 14 -28 31 -56 38 -60 7 -5 10 -12 7 -18 -4 -5
-1 -9 4 -9 6 0 11 -5 11 -11 0 -7 13 -33 29 -59 16 -27 27 -51 24 -54 -4 -3
-1 -6 5 -6 7 0 12 -5 12 -11 0 -6 16 -37 35 -70 19 -32 31 -59 27 -59 -4 0 -2
-4 4 -8 10 -7 58 -87 98 -167 11 -22 24 -43 29 -46 5 -3 7 -8 5 -10 -1 -3 7
-18 19 -34 l22 -30 -2 985 -2 985 -23 10 c-12 5 -22 13 -22 17 0 5 -6 8 -14 8
-7 0 -19 6 -25 14 -7 8 -54 42 -106 77 -52 34 -95 66 -95 71 0 4 -5 8 -11 8
-6 0 -48 27 -93 60 -46 33 -88 60 -94 60 -6 0 -15 6 -19 13 -4 7 -25 23 -45
36 -21 12 -38 28 -38 33 0 6 -3 9 -6 5 -4 -3 -40 18 -80 48 -41 30 -78 55 -83
55 -6 0 -15 8 -20 18 -6 9 -11 13 -11 9 0 -4 -6 -3 -12 3 -7 6 -51 37 -98 70
-47 32 -93 66 -102 74 -10 9 -22 16 -28 16 -5 0 -10 5 -10 10 0 6 -6 10 -12
10 -12 1 -112 70 -150 104 -10 9 -18 13 -18 9 0 -5 -4 -3 -8 3 -4 5 -47 37
-97 70 -49 32 -93 64 -97 69 -5 7 -8 7 -8 0 0 -5 -5 -2 -11 7 -5 9 -27 27 -49
39 -22 13 -40 26 -40 31 0 4 -5 8 -10 8 -6 0 -41 23 -79 50 -38 28 -72 50 -75
50 -3 0 -15 9 -26 20 -22 22 -49 27 -46 7z"/>
<path d="M4440 4298 c0 -6 -3 -9 -6 -5 -3 3 -11 1 -18 -4 -34 -29 -168 -119
-176 -119 -6 0 -10 -5 -10 -12 0 -6 -3 -8 -7 -5 -3 4 -12 -2 -20 -13 -8 -11
-18 -20 -23 -20 -5 0 -53 -31 -107 -70 -54 -38 -119 -84 -146 -102 -93 -65
-182 -128 -194 -138 -7 -6 -13 -7 -13 -3 0 4 -4 3 -8 -2 -4 -6 -42 -35 -85
-65 -44 -30 -91 -65 -107 -77 -15 -12 -30 -20 -34 -16 -3 3 -6 1 -6 -6 0 -6
-11 -16 -25 -21 -14 -5 -25 -15 -25 -21 0 -7 -3 -10 -6 -6 -5 5 -107 -64 -124
-84 -3 -3 -24 -16 -47 -29 -24 -13 -43 -27 -43 -32 0 -4 -15 -15 -32 -24 -28
-14 -127 -82 -165 -114 -7 -6 -17 -10 -23 -10 -5 0 -10 -4 -10 -10 0 -5 -14
-16 -30 -25 -34 -18 -206 -135 -232 -159 -17 -15 -18 -75 -18 -993 1 -852 2
-975 15 -958 8 11 19 25 25 32 5 7 21 36 34 66 13 30 29 58 35 61 6 4 9 12 6
17 -4 5 -2 9 3 9 6 0 17 18 26 40 9 22 21 40 28 40 6 0 9 3 5 6 -3 3 7 27 23
53 15 27 31 58 35 69 3 12 11 22 16 22 6 0 7 5 4 10 -3 6 -3 10 2 10 4 0 24
32 43 70 19 39 38 70 42 70 5 0 8 6 8 13 0 7 13 34 30 60 16 26 26 47 22 47
-4 0 -2 4 3 8 6 4 18 23 27 42 10 19 29 53 42 75 14 22 34 58 46 80 37 73 128
233 144 254 5 7 11 20 12 29 2 8 6 18 11 21 4 3 19 29 33 56 14 28 30 53 35
57 7 5 7 8 0 8 -6 0 -6 3 1 8 6 4 25 34 43 67 61 110 94 170 118 210 13 22 26
48 29 58 4 9 11 17 17 17 6 0 8 3 4 6 -3 3 8 27 24 54 16 26 29 52 29 59 0 6
5 11 12 11 6 0 9 3 6 6 -6 5 49 105 72 132 6 6 7 12 3 12 -4 0 -3 4 2 8 6 4
18 23 29 42 100 188 121 226 129 235 9 11 29 48 77 140 17 33 42 78 56 100 13
22 30 51 36 65 7 14 36 64 65 113 29 48 50 87 46 87 -3 0 0 8 8 18 8 9 21 31
29 47 8 17 21 36 28 43 7 8 10 18 7 23 -4 5 -2 9 3 9 10 0 68 110 64 123 -1 4
3 7 9 7 5 0 19 20 30 45 11 25 23 45 27 45 4 0 8 9 9 20 1 11 -4 20 -13 20 -8
0 -14 -5 -14 -12z"/>
<path d="M1295 2500 c-3 -5 -3 -10 0 -10 3 0 1 -6 -5 -12 -6 -7 -32 -49 -57
-93 -25 -44 -53 -91 -62 -105 -8 -14 -16 -27 -16 -30 0 -3 -10 -21 -23 -41
-12 -20 -22 -41 -22 -46 0 -5 -8 -18 -17 -29 -10 -11 -29 -42 -43 -69 -13 -28
-27 -52 -30 -55 -3 -3 -12 -18 -20 -35 -8 -16 -29 -53 -46 -81 -17 -28 -43
-75 -58 -105 -14 -30 -26 -49 -26 -44 0 6 -10 -10 -22 -35 -11 -25 -36 -70
-55 -101 -34 -59 -35 -84 -2 -94 10 -4 33 -18 51 -33 17 -15 34 -26 37 -26 9
3 95 -48 103 -61 4 -5 8 -6 8 -2 0 4 27 -11 60 -33 33 -22 60 -37 60 -33 0 4
5 0 11 -10 6 -9 14 -15 20 -12 5 4 9 2 9 -3 0 -5 8 -12 18 -15 9 -4 35 -18 57
-32 22 -14 54 -32 72 -40 17 -8 37 -20 45 -27 7 -8 39 -27 70 -43 32 -17 58
-34 58 -38 0 -5 5 -5 10 -2 6 3 10 1 10 -5 0 -6 10 -14 23 -19 13 -5 52 -28
87 -50 35 -23 69 -41 77 -41 7 0 13 -4 13 -9 0 -5 14 -14 30 -21 17 -7 49 -26
70 -41 22 -16 40 -27 40 -24 0 3 6 1 13 -5 13 -11 102 -66 177 -108 25 -14 47
-30 48 -34 2 -4 9 -8 16 -8 6 0 35 -16 65 -35 29 -19 55 -35 57 -35 3 0 33
-18 66 -40 95 -61 109 -53 59 36 -17 28 -27 55 -24 58 4 3 1 6 -5 6 -7 0 -18
16 -27 36 -8 19 -24 47 -35 61 -11 14 -17 29 -14 34 3 5 1 9 -4 9 -5 0 -16 17
-25 38 -9 20 -30 60 -47 87 -16 28 -35 62 -41 77 -6 16 -16 28 -22 28 -6 0 -7
3 -4 6 4 4 -2 19 -12 33 -10 14 -22 36 -25 49 -4 12 -12 22 -17 22 -5 0 -9 9
-9 20 0 11 -3 20 -7 20 -5 0 -17 19 -27 43 -11 23 -27 51 -36 62 -9 11 -27 45
-40 75 -14 30 -30 59 -37 63 -7 4 -13 14 -13 21 0 6 -13 33 -29 58 -16 25 -27
49 -24 52 4 3 1 6 -5 6 -6 0 -15 15 -21 33 -7 19 -21 44 -34 58 -12 13 -21 25
-19 26 3 4 -16 42 -60 121 -28 51 -60 110 -109 202 -13 25 -28 48 -34 52 -7 5
-7 8 0 8 6 0 5 4 -1 8 -10 6 -30 42 -93 161 -7 14 -25 46 -39 71 -14 25 -25
47 -23 49 1 2 -1 7 -6 10 -4 3 -17 23 -27 44 -20 38 -30 45 -41 27z"/>
<path d="M3767 2443 c-19 -38 -46 -88 -59 -113 -12 -25 -27 -48 -33 -52 -7 -5
-7 -8 0 -8 6 0 5 -3 -1 -8 -6 -4 -23 -30 -37 -59 -15 -28 -31 -54 -37 -58 -6
-4 -8 -11 -5 -16 4 -5 1 -9 -4 -9 -6 0 -11 -6 -11 -13 0 -7 -15 -37 -34 -67
-19 -30 -32 -58 -30 -62 3 -5 0 -8 -5 -8 -6 0 -11 -5 -11 -10 0 -6 -25 -53
-55 -106 -31 -53 -57 -101 -58 -107 -1 -6 -10 -20 -19 -31 -10 -10 -22 -34
-29 -53 -6 -18 -15 -33 -20 -33 -6 0 -8 -4 -5 -9 3 -5 0 -14 -8 -20 -7 -6 -21
-31 -32 -56 -10 -25 -21 -45 -24 -45 -4 0 -20 -28 -36 -62 -16 -35 -37 -72
-46 -82 -10 -11 -18 -24 -18 -29 0 -6 -13 -31 -29 -57 -16 -27 -27 -51 -24
-54 4 -3 1 -6 -5 -6 -6 0 -14 -10 -18 -22 -4 -13 -18 -40 -31 -60 -13 -21 -20
-38 -16 -38 5 0 4 -4 -2 -8 -10 -7 -48 -72 -70 -119 -5 -13 -13 -23 -17 -23
-3 0 -12 -16 -18 -35 -6 -19 -16 -35 -21 -35 -6 0 -8 -4 -5 -9 3 -5 -3 -19
-13 -32 -10 -13 -30 -47 -43 -74 -14 -28 -39 -74 -56 -103 -25 -41 -29 -54
-18 -58 8 -3 25 0 38 7 13 7 27 12 31 11 5 -1 6 1 3 6 -3 5 16 19 42 32 26 13
50 28 54 34 4 6 8 8 8 3 0 -4 18 6 40 22 21 15 53 34 70 41 16 7 30 16 30 21
0 5 5 9 10 9 6 0 28 11 50 25 22 14 40 23 40 20 0 -3 9 4 20 15 11 11 36 27
57 35 20 9 40 19 43 24 3 4 55 36 115 71 61 35 121 71 135 80 14 10 81 50 150
90 69 40 152 91 185 112 33 21 65 38 72 38 7 0 13 5 13 10 0 6 7 10 15 10 8 0
15 5 15 10 0 6 5 10 10 10 6 0 35 16 65 35 30 19 55 31 55 27 0 -4 4 -2 8 3 7
11 91 62 105 64 4 1 15 9 25 19 11 11 33 25 50 33 18 7 34 20 37 27 3 8 -12
44 -34 80 -67 116 -95 166 -116 204 -11 20 -35 63 -54 95 -19 32 -36 63 -37
68 -1 6 -12 27 -25 47 -38 57 -63 102 -61 111 1 4 -2 7 -8 7 -5 0 -10 5 -10
11 0 7 -13 34 -30 60 -16 27 -26 49 -22 49 4 0 1 4 -5 8 -7 4 -23 28 -36 52
-49 93 -101 180 -107 180 -4 0 -23 -30 -43 -67z"/>
</g>
</svg>
